<?xml version="1.0" encoding="UTF-8"?>
<svg id="Layer_2" xmlns="http://www.w3.org/2000/svg" viewBox="0 0 44.97 44.97">
  <defs>
    <style>
      .cls-1 {
        fill: #fff200;
      }
    </style>
  </defs>
  <g id="Layer_2-2" data-name="Layer_2">
    <g>
      <rect class="cls-1" width="44.97" height="44.97" rx="5.19" ry="5.19"/>
      <g id="Layer_1-2">
        <g id="Layer_1-2-2" data-name="Layer_1-2">
          <g>
            <path d="M6.71,12.72h4.06v8.61c.36-.09.69-.18,1.05-.27v-5.19h4.04v5.65c0,.21.06.34.24.45.82.53,1.48,1.21,1.97,2.07.11.18.2.24.43.2,1.85-.37,3.62-.99,5.3-1.88.16-.09.25-.17.25-.37,0-.48.31-.85.78-.95.15-.03.23-.08.23-.26v-4.8s-.01-.09-.03-.14h-2.03v5.63h-.97v-6.64h4.01c0,.12.02.24.02.36v5.49c0,.22.04.33.28.37.42.08.72.5.72.97v2.52c.46.29.91.48,1.26.81,1.39,1.33.86,3.65-.95,4.25-.25.09-.32.21-.32.45.02.75,0,1.49,0,2.25,0,.62-.41,1.04-1.02,1.04h-1.02c-.55,0-.98-.41-.98-.98,0-.21-.08-.28-.25-.37-1.48-.79-3.05-1.36-4.67-1.75-.06-.01-.12-.01-.2-.02v3.53c-.6.16-1.19.31-1.78.45-.22.05-.27.14-.27.35.01.78,0,1.56,0,2.34s-.44,1.36-1.22,1.57c-.03,0-.05.03-.08.05h-2.47s-.03-.03-.05-.03c-.68-.15-1.12-.57-1.23-1.26-.11-.73.18-1.29.84-1.64.06-.03.13-.09.13-.15v-2.07c-.3-.03-.57-.04-.83-.09-2.52-.41-4.17-1.88-4.99-4.3-.15-.42-.19-.88-.28-1.32v-.93c.02-.06.04-.11.05-.18.22-1.97,1.16-3.48,2.79-4.57.15-.11.24-.21.24-.41v-7.48c0-.09-.01-.18-.02-.28h-2.07v7.69h-.98v-8.75h0ZM12.82,22c-2.62-.04-5.08,2.11-5.1,5.17-.02,2.83,2.29,5.15,5.09,5.15,2.82,0,5.11-2.32,5.11-5.15s-2.29-5.16-5.11-5.16h.01ZM18.63,25.27c.39,1.25.39,2.51,0,3.8,1.89.38,3.67.99,5.39,1.87v-7.53c-.88.36-1.74.74-2.62,1.05-.9.31-1.82.54-2.76.8h0ZM25.04,22.01v10.28h1v-10.28h-1ZM13.82,36.43h-.53c-.26.01-.41.18-.46.42-.04.26.07.45.29.55.11.05.24.06.36.06h1.73c.49,0,.69-.2.69-.7v-4.28c-.13.06-.22.11-.3.14-.48.18-.95.39-1.44.52-.27.07-.34.16-.34.43.01.93,0,1.87,0,2.84h0ZM14.84,16.85h-2.01v4.06c.68.11,1.35.23,2.01.35v-4.41ZM27.07,28.57c.56-.09,1.03-.74,1.04-1.41,0-.67-.47-1.33-1.04-1.43v2.83h0ZM16.88,33.2c.33-.09.62-.14.91-.22.06-.02.13-.11.14-.16v-2.2c-.35.39-.67.75-.99,1.11-.04.04-.05.11-.05.17v1.31h0Z"/>
            <path d="M38.26,12.65c-.1.44-.16.9-.3,1.32-.78,2.42-3.04,3.97-5.56,3.88-2.67-.1-4.88-2.21-5.25-4.73-.02-.12-.04-.24-.08-.41h-1.52c-.07,0-.15.11-.2.18-.37.67-1.09.98-1.78.77-.69-.21-1.12-.85-1.1-1.61,0-.09-.06-.22-.13-.26-.76-.48-1.52-.94-2.29-1.39-.08-.05-.24-.04-.32,0-.48.28-.96.32-1.47.09-.09-.04-.25-.02-.32.04-.84.67-1.66,1.35-2.5,2.02-.13.11-.17.2-.13.39.17.88-.48,1.74-1.35,1.81-.9.08-1.66-.64-1.65-1.56,0-.23-.06-.35-.26-.46-.72-.42-1.42-.86-2.13-1.3-.15-.09-.25-.09-.41,0-.55.33-1.25.28-1.73-.11-.48-.39-.68-1.06-.5-1.66.19-.62.74-1.05,1.4-1.09.85-.05,1.64.76,1.56,1.63-.02.18.03.26.16.35.76.45,1.51.92,2.27,1.36.08.05.24.04.32,0,.48-.28.97-.3,1.47-.1.09.03.24.01.32-.05.86-.68,1.7-1.36,2.55-2.07.07-.06.09-.21.08-.31-.11-.88.34-1.6,1.14-1.81.73-.19,1.52.23,1.77.98.06.16.13.36.09.51-.06.29.09.4.29.52.77.45,1.53.92,2.29,1.38.74-.5,1.5-.46,2.1.16.04.04.1.09.11.14.12.41.42.42.77.41.35-.02.72,0,1.08,0,.13-1.08.47-2.05,1.1-2.89.98-1.29,2.25-2.05,3.86-2.24.06,0,.11-.03.17-.05h.86c.07.02.14.04.21.06,2.3.33,3.85,1.61,4.66,3.8.16.44.22.92.32,1.39v.87h0l.02.04ZM32.67,16.84c2.54,0,4.61-2.09,4.6-4.65-.01-2.54-2.08-4.65-4.58-4.65-2.74.01-4.62,2.28-4.6,4.65.02,2.58,2.03,4.65,4.58,4.65ZM18.42,9.11c0,.29.24.54.52.54.26,0,.51-.26.51-.53,0-.28-.25-.53-.53-.53-.28,0-.49.22-.49.52h0ZM13.85,13.77c.28-.01.52-.28.5-.56-.01-.28-.26-.5-.53-.49-.27,0-.51.26-.51.53s.27.54.53.53h.01ZM23.99,12.72c.31,0,.53-.2.53-.5,0-.28-.22-.52-.49-.53-.28-.01-.53.23-.54.52,0,.27.22.51.51.52h0ZM8.74,10.66c.29,0,.51-.2.52-.49,0-.3-.22-.54-.51-.54s-.5.23-.5.53.2.51.49.52h0Z"/>
            <path d="M16.91,11.72h4.01v9.71h-.96v-8.71h-2.06v8.71h-1v-9.72h0Z"/>
            <path d="M29.4,24.86c-.19-.18-.42-.4-.64-.6.72-.72,1.41-1.43,2.1-2.13.2.21.41.44.6.64-.66.67-1.37,1.39-2.06,2.1Z"/>
            <path d="M29.46,29.44l2.08,2.1c-.21.21-.43.43-.63.63-.7-.7-1.4-1.41-2.11-2.13.2-.18.44-.39.66-.6h0Z"/>
            <path d="M33.14,26.65v.97h-2.99v-.97h2.99Z"/>
            <path d="M10.3,30.58v-6.86c2.04,1.14,4.05,2.27,6.1,3.43-2.04,1.15-4.05,2.27-6.1,3.43ZM11.29,28.87c1.04-.58,2.02-1.14,3.05-1.71-1.04-.58-2.03-1.14-3.05-1.71,0,0,0,3.43,0,3.43Z"/>
            <path d="M32.16,9.62v-1h1v.99c1.03.22,1.56.77,1.52,1.56-.27,0-.55.01-.83,0-.06,0-.15-.09-.18-.16-.11-.23-.28-.35-.53-.34h-.92c-.33,0-.54.2-.55.5-.01.29.19.53.51.55.31.02.62.03.92,0,.79-.06,1.5.53,1.6,1.36.1.81-.44,1.51-1.28,1.7-.07.01-.14.02-.24.04v.98h-.98v-.97c-.88-.13-1.45-.58-1.54-1.56h.9s.11.08.13.14c.1.28.31.37.58.37.29,0,.6.01.9,0,.33-.01.57-.26.56-.54,0-.29-.25-.5-.59-.51-.41-.01-.85.02-1.26-.05-.74-.14-1.26-.82-1.22-1.53.04-.81.62-1.41,1.42-1.49.02,0,.04-.01.09-.03h0Z"/>
          </g>
        </g>
      </g>
    </g>
  </g>
</svg>