<?xml version="1.0" encoding="UTF-8"?>
<svg id="Layer_2" xmlns="http://www.w3.org/2000/svg" viewBox="0 0 44.97 44.97">
  <defs>
    <style>
      .cls-1 {
        fill: #fff200;
      }
    </style>
  </defs>
  <g id="Layer_2-2" data-name="Layer_2">
    <g>
      <rect class="cls-1" width="44.97" height="44.97" rx="5.19" ry="5.19"/>
      <g id="Layer_1-2">
        <g id="Layer_1-2-2" data-name="Layer_1-2">
          <g>
            <path d="M34.7,30.84c.34.08.67.13.98.24,1.58.55,2.53,1.56,2.79,3.05.31,1.8-.81,3.46-2.71,4.13-.53.18-1.07.26-1.64.26H10.67c-2.03-.01-3.81-1.39-4.16-3.17-.36-1.9.83-3.69,2.89-4.31.24-.08.49-.11.73-.16.07-.01.1-.03.11-.1.18-2.48,1.95-4.63,4.55-5.54.03-.01.06-.03.1-.04-.07-.07-.14-.13-.2-.2-.66-.69-1-1.5-1.06-2.39-.02-.23,0-.46,0-.68,0-.06-.02-.09-.07-.12-.85-.49-.98-1.53-.26-2.17.04-.04.06-.1.06-.15,0-.51.08-1.01.29-1.48.38-.81,1.01-1.44,1.87-1.85.71-.34,1.5-.48,2.3-.4,1.13.11,2.05.56,2.77,1.34.61.68.91,1.47.88,2.35,0,.09.03.16.09.23.69.65.55,1.65-.29,2.15-.06.04-.07.06-.06.12.09,1.16-.24,2.22-1.1,3.11l-.15.16c2.79,1.07,4.34,2.94,4.66,5.65h.97v-4.93c0-.4.29-.67.74-.67h7.57c.38,0,.66.19.74.49.01.06.02.13.02.19v4.9h.03s0-.01,0-.01ZM22.51,32.09h-11.61c-.83,0-1.55.23-2.15.73-.86.71-1.14,1.95-.64,2.89.54,1.01,1.45,1.55,2.72,1.55h23.33c.16,0,.34-.01.51-.04,1.58-.23,2.67-1.52,2.42-2.92-.16-1-.8-1.67-1.85-2.05-.42-.16-.85-.17-1.29-.17h-11.44ZM23.23,30.83c-.03-.19-.06-.38-.09-.56-.4-2.05-2.24-3.71-4.53-4.12-.19-.04-.37-.07-.56-.03-.37.08-.73.07-1.11.03-.14-.02-.28-.05-.43-.04-.51.06-1,.19-1.45.38-1.78.75-2.89,1.98-3.31,3.71-.05.21-.08.42-.11.63h11.59s0-.01,0-.01ZM27.02,30.83h6.27v-4.33h-1.28v1.38c0,.38-.31.65-.73.66h-2.24c-.43,0-.73-.27-.73-.66v-1.38h-1.28v4.32h0ZM15.04,22.03c0,.16-.01.32,0,.48.05.68.32,1.3.85,1.8.37.34.8.56,1.33.61.85.08,1.5-.26,1.99-.85.34-.4.53-.86.61-1.35.03-.23.03-.45.04-.68h-4.83,0ZM14.78,19.21h5.31c-.02-.68-.46-1.48-1.3-1.9-.96-.48-1.92-.46-2.84.08-.73.42-1.1,1.05-1.18,1.82h0ZM17.44,20.47h-2.94c-.18,0-.26.05-.26.16s.09.16.26.16h5.97c.09-.02.14-.08.14-.15,0-.08-.06-.14-.15-.15h-3.04ZM30.6,27.29v-.78h-.88v.78h.88Z"/>
            <path d="M31.8,18.44v1.49c0,.08.03.13.09.18.76.56,1.53,1.12,2.27,1.68.32.23.38.53.19.85-.43.73-.86,1.45-1.29,2.17-.2.34-.61.44-.96.29-.36-.16-.48-.54-.28-.86.34-.56.66-1.13,1.01-1.68.04-.07.03-.1-.03-.15-.62-.46-1.24-.92-1.87-1.38-.05-.04-.14-.06-.2-.06h-1.15c-.06,0-.14.03-.18.06-.63.46-1.25.93-1.88,1.38-.06.04-.07.08-.03.14.34.56.67,1.13,1.01,1.68.21.37.04.79-.4.91-.31.09-.66-.03-.81-.29-.46-.75-.91-1.51-1.35-2.27-.15-.27-.07-.57.19-.77.76-.57,1.53-1.13,2.3-1.7.08-.06.1-.11.1-.19v-1.87c0-.38-.01-.76-.01-1.13,0-.06-.03-.09-.09-.11-.16-.06-.34-.11-.5-.18-.06-.03-.1-.03-.15.03-.22.21-.45.41-.68.61-.32.29-.73.29-1.05,0-.43-.38-.86-.76-1.29-1.15-.32-.29-.32-.66,0-.93.21-.19.44-.39.66-.58.05-.04.06-.08.03-.15-.08-.15-.14-.3-.21-.45-.03-.06-.05-.08-.12-.08h-.96c-.43,0-.73-.27-.73-.66v-1.64c0-.38.31-.65.73-.65h.95c.06,0,.09-.02.12-.08.07-.16.14-.33.21-.48.03-.05.01-.08-.03-.12-.22-.19-.44-.39-.66-.58-.32-.29-.32-.66,0-.93.43-.39.88-.78,1.32-1.17.27-.24.71-.25,1,0,.23.2.46.4.68.61.05.04.09.05.15.03.17-.07.35-.14.52-.19.07-.03.09-.05.09-.12v-.81c0-.41.29-.67.76-.67h1.81c.44,0,.73.26.73.66v.81c0,.09.03.11.11.14.16.06.34.12.5.19.07.03.11.03.16-.03.21-.19.43-.38.64-.57.32-.29.74-.29,1.06,0,.43.38.86.77,1.3,1.15.29.27.31.65,0,.91-.21.19-.43.39-.66.58-.07.06-.07.1-.03.17.08.15.14.29.2.44.03.06.06.08.13.08h.94c.43,0,.73.27.73.66v1.63c0,.4-.29.66-.74.66h-.95c-.06,0-.09.02-.12.08-.06.16-.14.3-.21.45-.03.06-.03.1.03.15.22.19.45.39.67.59.31.28.31.66,0,.93-.43.38-.87.78-1.3,1.16-.31.26-.72.26-1.03,0-.23-.21-.46-.41-.68-.61-.05-.04-.09-.06-.15-.03-.16.07-.34.13-.51.19-.06.03-.09.05-.09.11v1.53h-.01v-.02h-.01ZM26.21,9.23c.2.18.4.35.59.53.28.25.32.54.11.84-.23.34-.4.69-.49,1.08-.08.31-.36.51-.71.52h-.88v.43s.02.01.03.01h.84c.38,0,.63.19.72.51.1.38.26.73.49,1.05.23.34.2.61-.11.89-.19.17-.39.34-.58.51.12.11.24.22.36.33.2-.18.41-.36.61-.55.26-.24.61-.28.93-.1.38.21.79.36,1.23.45.34.07.56.31.56.62v.74s0,.05,0,.08h.5v-.81c0-.31.22-.56.56-.63.45-.09.86-.24,1.25-.46.29-.16.64-.13.88.09.19.17.38.34.58.51.03.03.05.04.06.05.12-.1.24-.21.36-.31-.2-.18-.42-.36-.62-.55-.26-.24-.31-.54-.1-.83.24-.34.41-.69.51-1.08.09-.31.36-.51.71-.51h.9v-.45h-.87c-.37,0-.63-.21-.71-.51-.08-.25-.17-.49-.28-.74-.06-.13-.14-.26-.23-.38-.19-.28-.14-.58.11-.81.2-.18.41-.36.6-.53-.13-.11-.24-.22-.36-.32-.19.16-.38.34-.58.51-.26.24-.61.28-.94.09-.38-.21-.79-.36-1.23-.46-.36-.08-.57-.31-.58-.63v-.66s0-.07,0-.11h-.5v.78c0,.31-.23.55-.56.62-.43.09-.84.24-1.23.44-.36.2-.68.16-.98-.1-.19-.17-.38-.35-.56-.52-.14.12-.24.23-.38.34h0s-.01,0-.01,0ZM30.4,19.7v-1.25h-.47v1.25h.47Z"/>
            <path d="M28.09,32.48c1.35,0,2.47.99,2.47,2.2,0,1.2-1.11,2.2-2.47,2.2s-2.47-.98-2.47-2.2,1.11-2.19,2.46-2.19h0ZM28.09,35.62c.58,0,1.06-.42,1.06-.94s-.48-.95-1.07-.94c-.59,0-1.06.42-1.06.94,0,.53.47.95,1.07.94h0Z"/>
            <path d="M16.88,32.48c1.35,0,2.47,1,2.47,2.2s-1.11,2.2-2.47,2.2-2.47-.99-2.47-2.2,1.12-2.2,2.47-2.2h0ZM16.89,33.73c-.6,0-1.07.42-1.07.94s.48.94,1.06.94,1.07-.42,1.07-.93-.47-.95-1.06-.95Z"/>
            <path d="M33.68,32.48c1.34,0,2.47.98,2.47,2.17,0,1.22-1.09,2.22-2.45,2.22-1.35,0-2.48-.97-2.49-2.17,0-1.23,1.09-2.22,2.47-2.22h0ZM33.69,33.73c-.59,0-1.06.42-1.07.94,0,.53.48.95,1.06.96.59,0,1.07-.43,1.07-.95,0-.52-.48-.94-1.06-.95Z"/>
            <path d="M11.28,32.48c1.35,0,2.47.99,2.47,2.19s-1.1,2.2-2.46,2.21c-1.36,0-2.48-.98-2.48-2.18s1.1-2.21,2.47-2.22h0ZM11.28,33.73c-.58,0-1.06.43-1.06.94s.48.95,1.07.94c.58,0,1.06-.43,1.06-.94s-.48-.94-1.07-.94h0Z"/>
            <path d="M24.95,34.68c0,1.2-1.11,2.2-2.47,2.19-1.36,0-2.47-.99-2.46-2.21,0-1.2,1.12-2.19,2.47-2.18,1.37,0,2.46,1,2.46,2.2ZM22.48,33.73c-.59,0-1.06.42-1.07.94,0,.53.47.95,1.06.96.59,0,1.06-.42,1.07-.94,0-.53-.46-.95-1.06-.96h0Z"/>
            <path d="M32.77,12.43c0,1.28-1.18,2.32-2.61,2.32s-2.61-1.05-2.62-2.32c0-1.28,1.18-2.32,2.61-2.32s2.62,1.05,2.62,2.32ZM31.37,12.43c0-.59-.55-1.08-1.21-1.08s-1.22.49-1.21,1.08c0,.58.55,1.07,1.21,1.08.66,0,1.22-.49,1.21-1.08h0Z"/>
          </g>
        </g>
      </g>
    </g>
  </g>
</svg>