<svg xmlns="http://www.w3.org/2000/svg" id="Layer_2" viewBox="0 0 44.97 44.97"><defs><style>      .cls-1 {        fill: #fff200;      }    </style></defs><g id="Layer_2-2" data-name="Layer_2"><g><rect class="cls-1" width="44.97" height="44.97" rx="5.19" ry="5.19"></rect><g id="Layer_1-2"><g id="Layer_1-2-2" data-name="Layer_1-2"><g><path d="M16.63,37.47c-.89-.39-1.24-1.09-.98-2.03.04-.16.2-.31.33-.42.43-.31.89-.59,1.33-.9.08-.05.16-.15.17-.24.01-.87,0-1.74,0-2.65-.13,0-.24-.01-.35-.02h-6.4c-1.57,0-2.78-.93-3.13-2.39-.07-.27-.09-.56-.09-.84V10.73c0-1.88,1.35-3.23,3.23-3.23h6.58c.13,0,.27.01.4.06.27.09.4.34.38.63-.03.27-.22.5-.49.54-.13.02-.25.02-.38.02h-6.43c-.81,0-1.47.3-1.83,1.07-.13.29-.21.63-.21.96-.01,5.73-.01,11.45,0,17.18,0,1.25.79,2.03,2.03,2.03h23.4c1.25,0,2.03-.78,2.04-2.03v-2.35H11.58c-.14,0-.27,0-.41-.02-.3-.04-.51-.27-.53-.57-.02-.28.16-.53.45-.61.11-.03.23-.04.35-.04h25.25c.37,0,.63.14.79.47v3.68c-.09.29-.15.59-.27.85-.61,1.25-1.63,1.86-3.02,1.86h-15.42v.35c0,.86-.01,1.71,0,2.57,0,.39-.13.64-.45.85-.43.26-.83.56-1.25.82-.17.11-.22.22-.15.4h11.27c-.11-.17-.15-.32-.26-.39-.44-.31-.9-.59-1.33-.91-.15-.11-.33-.31-.34-.47-.05-.47-.03-.95,0-1.43.03-.33.31-.54.63-.53.33.01.56.23.58.57.02.23.02.47,0,.7,0,.17.05.28.2.39.45.28.89.57,1.31.87.15.1.29.26.33.42.27.94-.09,1.64-.98,2.03h-11.71Z"></path><path d="M37.46,22.02c-.04.07-.08.13-.12.19-.16.21-.37.31-.64.25-.27-.07-.43-.23-.47-.5-.02-.13-.02-.25-.02-.38v-10.76c0-.83-.29-1.51-1.07-1.86-.31-.14-.68-.2-1.02-.21-2.13-.02-4.24,0-6.38-.01-.13,0-.25,0-.38-.02-.29-.04-.49-.27-.51-.55-.03-.29.14-.55.42-.63.13-.03.27-.05.4-.05,2.17,0,4.32.03,6.49,0,1.67-.03,3.03,1.19,3.24,2.63,0,.03.03.05.05.07v11.83h0Z"></path><path d="M21.79,9.7c-.43.43-.84.86-1.28,1.27-.15.13-.37.26-.56.26-.47.01-.73-.53-.48-.93.06-.09.13-.17.21-.25.74-.75,1.49-1.49,2.23-2.23.41-.41.73-.41,1.13-.01.77.76,1.53,1.53,2.29,2.29.2.2.35.45.21.71-.09.18-.29.33-.47.41-.24.1-.45-.06-.62-.23-.43-.43-.85-.86-1.35-1.35v12.54c0,.15,0,.29-.03.44-.06.3-.31.5-.6.49-.28,0-.52-.19-.58-.48-.03-.15-.03-.29-.03-.44v-12.46l-.07-.03h0Z"></path><path d="M13.48,14.37h1.07c1.07.01,2.15-.03,3.22.04,1.27.08,2.19,1.05,2.21,2.33.03,1.89.01,3.78.01,5.68,0,.43-.27.7-.63.69-.37,0-.61-.28-.61-.71v-5.3c0-.14,0-.27-.02-.41-.09-.65-.47-1.03-1.12-1.04-1.1-.03-2.21-.01-3.31-.02h-.87c.07.09.11.15.16.21.38.39.76.75,1.14,1.14.33.33.35.69.09.96-.26.27-.64.25-.96-.07-.79-.79-1.57-1.57-2.35-2.36-.33-.33-.33-.67,0-1,.79-.8,1.58-1.59,2.38-2.38.3-.3.68-.31.93-.05.27.27.25.63-.06.93-.43.44-.87.87-1.3,1.3,0,.03.02.05.02.07h0Z"></path><path d="M31.49,15.63h-2.83c-.45,0-.9,0-1.34.02-.59.03-.97.4-1.05.98-.03.15-.03.31-.03.47v5.26c0,.51-.3.8-.73.73-.28-.05-.45-.22-.5-.5-.02-.09-.02-.19-.02-.29v-5.3c0-.76.17-1.45.77-1.97.54-.47,1.18-.66,1.89-.66h3.91c-.09-.1-.14-.17-.2-.23-.39-.39-.79-.78-1.17-1.18-.27-.29-.27-.64-.02-.89.24-.25.62-.26.89.01.83.81,1.65,1.63,2.47,2.47.28.29.27.63,0,.92-.81.83-1.63,1.65-2.47,2.47-.27.27-.65.25-.89,0-.25-.26-.25-.61.03-.89.44-.45.9-.89,1.35-1.33-.01-.03-.03-.05-.03-.08h-.03,0Z"></path></g></g></g></g></g></svg>