<?xml version="1.0" encoding="UTF-8"?>
<svg id="Layer_2" xmlns="http://www.w3.org/2000/svg" viewBox="0 0 44.97 44.97">
  <defs>
    <style>
      .cls-1 {
        fill: #fff200;
      }
    </style>
  </defs>
  <g id="Layer_2-2" data-name="Layer_2">
    <rect class="cls-1" width="44.97" height="44.97" rx="5.19" ry="5.19"/>
    <g id="Layer_1-2">
      <g id="Layer_1-2-2" data-name="Layer_1-2">
        <g>
          <path d="M8.7,18.07c.14-.53.52-.86.96-1.17,3.97-2.62,7.94-5.24,11.91-7.87.69-.46,1.15-.47,1.84-.01,4.05,2.67,8.1,5.36,12.14,8.04.95.63.98,1.91.06,2.46-.45.27-.91.28-1.38.02-.06-.03-.12-.07-.19-.1h-.07v.3c0,4.93-.01,9.86.01,14.79,0,.86-.26,1.46-1.1,1.74H12.09c-.83-.29-1.1-.88-1.1-1.74.02-4.93.01-9.86.01-14.79v-.35c-.07.03-.11.05-.15.07-.91.52-1.77.19-2.11-.82,0-.02-.02-.04-.04-.06v-.54h0ZM22.48,35.37h9.89c.58,0,.69-.12.69-.69v-15.6c0-.23-.07-.36-.25-.47-3.34-2.2-6.68-4.41-10.01-6.62-.23-.15-.38-.15-.61,0-3.34,2.22-6.68,4.43-10.03,6.64-.17.11-.23.23-.23.43v15.66c0,.53.13.66.67.66h9.89,0ZM35.44,18.3c-.15-.18-.25-.36-.39-.45-4.07-2.7-8.14-5.39-12.2-8.09-.25-.17-.46-.17-.71,0-4.04,2.69-8.09,5.36-12.14,8.05-.07.04-.13.09-.2.13-.21.18-.24.47-.08.68.15.21.39.25.64.09.06-.04.12-.08.18-.12,3.84-2.55,7.69-5.08,11.53-7.63.31-.21.56-.19.85.01,2.95,1.96,5.91,3.91,8.87,5.87.94.62,1.87,1.24,2.81,1.85.17.11.36.18.52.04.12-.1.19-.25.32-.44h0Z"/>
          <path d="M22.77,21.55c1.19-1.18,2.33-2.32,3.47-3.45.28-.28.59-.49.98-.58.59-.13,1.13,0,1.58.4.5.47.99.94,1.45,1.45.67.74.63,1.79-.1,2.53-1.08,1.09-2.17,2.18-3.26,3.26-.07.07-.15.12-.25.2.1.1.17.18.24.25,1.28,1.28,2.55,2.56,3.83,3.83.69.7.69,1.47,0,2.17-.78.78-1.56,1.56-2.34,2.34-.67.67-1.46.67-2.13,0-1.27-1.27-2.54-2.54-3.81-3.81-.08-.08-.13-.17-.22-.27-.1.1-.18.16-.25.23-.74.74-1.48,1.49-2.23,2.23-.12.12-.29.23-.45.28-1.17.34-2.34.67-3.51,1.01-.36.1-.69.08-.97-.2-.27-.28-.3-.61-.19-.98.34-1.17.66-2.33,1.01-3.49.05-.17.15-.33.27-.45.74-.75,1.48-1.49,2.23-2.23.07-.07.13-.13.25-.27-.09-.07-.19-.11-.26-.18-1.28-1.27-2.55-2.54-3.81-3.81-.71-.71-.71-1.48,0-2.18l2.32-2.32c.7-.69,1.47-.69,2.17.01,1.27,1.27,2.54,2.54,3.81,3.81.07.07.12.15.18.25h-.01ZM18.98,18.98c-.32-.31-.6-.59-.88-.86-.31-.3-.52-.3-.82,0-.78.78-1.56,1.56-2.34,2.34-.35.35-.35.53,0,.88,1.28,1.29,2.56,2.56,3.85,3.85.06.06.12.11.15.15,1.07-1.07,2.12-2.12,3.15-3.16-.29-.29-.59-.59-.92-.93-.17.17-.34.36-.52.54-.25.25-.51.27-.71.08-.21-.2-.19-.48.07-.73.19-.19.39-.36.59-.55-.33-.32-.59-.59-.87-.86-.03-.03-.07-.06-.12-.1-.3.3-.59.6-.9.9-.24.24-.52.25-.71.06-.2-.2-.18-.47.07-.71.29-.29.59-.58.91-.9h.01,0ZM22.84,29.26c.85.85,1.72,1.71,2.57,2.56.5.5,1,1.01,1.51,1.5.25.25.47.27.69.06.86-.85,1.72-1.71,2.57-2.57.15-.15.2-.38.05-.54-.33-.35-.69-.67-1.05-1.02-.28.28-.55.58-.84.85-.26.26-.52.28-.73.07-.19-.2-.17-.47.07-.71.29-.29.58-.58.86-.85-.33-.33-.63-.64-.96-.97-.17.18-.36.37-.55.56-.25.24-.52.26-.71.06-.19-.2-.17-.47.07-.71.19-.19.39-.36.56-.52-.35-.36-.66-.66-.94-.96l-3.17,3.17h0s0,.02,0,.02ZM19.42,31.26c2.39-2.4,4.78-4.79,7.16-7.17-.28-.28-.59-.59-.96-.95-.04.07-.09.16-.16.23-.64.64-1.28,1.29-1.92,1.93-1.51,1.51-3,3-4.51,4.51-.07.07-.13.21-.11.28.15.4.33.79.49,1.17ZM24.11,21.62c-2.38,2.38-4.77,4.77-7.16,7.16.33.14.69.28,1.02.45.19.09.29.05.44-.09,2.15-2.16,4.3-4.31,6.45-6.46.06-.06.11-.12.15-.15-.31-.32-.62-.63-.9-.91h0ZM28.92,21.82c.22-.22.47-.43.68-.67.29-.33.29-.82,0-1.13-.45-.48-.92-.96-1.4-1.4-.3-.29-.77-.29-1.09-.02-.26.21-.48.47-.72.7.85.85,1.69,1.69,2.55,2.54h-.01ZM25.69,20.02c-.29.29-.6.59-.88.87.83.83,1.67,1.67,2.5,2.51l.88-.88c-.83-.84-1.67-1.68-2.5-2.51h0ZM18.66,31.82c-.22-.52-.42-.99-.63-1.47-.02-.06-.06-.12-.11-.14-.5-.22-1.01-.44-1.53-.66-.1.36-.19.67-.28,1.01.74.3,1.25.82,1.56,1.56.33-.09.64-.18,1-.28h0ZM15.84,31.44c-.12.44-.24.85-.36,1.29.45-.13.86-.25,1.29-.37-.2-.43-.48-.72-.93-.91h0Z"/>
        </g>
      </g>
    </g>
  </g>
</svg>