<?xml version="1.0" encoding="UTF-8"?>
<svg id="Layer_2" xmlns="http://www.w3.org/2000/svg" viewBox="0 0 44.97 44.97">
  <defs>
    <style>
      .cls-1 {
        fill: #fff200;
      }
    </style>
  </defs>
  <g id="Layer_2-2" data-name="Layer_2">
    <g>
      <rect class="cls-1" width="44.97" height="44.97" rx="5.19" ry="5.19"/>
      <g id="Layer_1-2">
        <g id="Layer_1-2-2" data-name="Layer_1-2">
          <g>
            <path d="M8.48,19.24v-5.14c.02-.1.06-.2.09-.29.29-1,.87-1.64,1.73-1.9.31-.09.63-.09.94-.09.58-.01,1.16,0,1.76,0v-.66c.01-.6.2-1.12.64-1.43.23-.16.51-.22.77-.33h16.13c1.18.24,1.48,1.17,1.36,2.43h2.17c.47,0,.89.17,1.28.47.62.47.93,1.16,1.11,1.96v4.86c-.02.08-.04.15-.06.23-.24,1.07-.82,1.77-1.72,2.1-.13.04-.26.08-.41.12v.37c0,3.49.02,6.98-.02,10.47-.01.99.11,1.91.42,2.81.02.07.04.15.06.23.15.56-.06,1.09-.5,1.26-.44.17-.88-.11-1.04-.67-.14-.46-.26-.92-.39-1.38-.47-1.64-.92-3.29-1.39-4.93-.12-.41-.11-.8.18-1.12.27-.29.59-.34.93-.15.02.02.07,0,.1.01v-6.87h-1.46v11.16H13.74v-11.16h-1.94v7.4c.77.12,1.04.62.8,1.46-.57,2-1.14,4.01-1.69,6.01-.14.5-.36.87-.82.97h-.12c-.7-.31-.86-.69-.62-1.53.24-.85.48-1.68.71-2.53.06-.21.09-.42.09-.64v-11.02c0-.12-.04-.31-.11-.34-.83-.4-1.32-1.13-1.55-2.13ZM30.25,31.65v-12.13c0-.17-.01-.35-.03-.52-.13-1.03-.55-1.89-1.18-2.62-.21-.25-.4-.37-.7-.37-3.81.01-7.61.02-11.42,0-.53,0-.88.16-1.24.64-.7.92-1.01,1.96-1.01,3.16v11.86h15.59s0-.01,0-.01ZM13.96,11.81h17c.14-1.05-.05-1.31-.86-1.31-5.06.02-10.12.02-15.18,0-1.01,0-1.03.34-.96,1.31Z"/>
            <path d="M21.71,17.72h5.88c.37,0,.6.21.61.54s-.24.56-.62.56h-11.8c-.31-.02-.5-.25-.5-.55,0-.31.2-.54.51-.54h5.93,0Z"/>
          </g>
        </g>
      </g>
    </g>
  </g>
</svg>