<?xml version="1.0" encoding="UTF-8"?>
<svg id="Layer_2" xmlns="http://www.w3.org/2000/svg" viewBox="0 0 44.97 44.97">
  <defs>
    <style>
      .cls-1 {
        fill: #fff200;
      }
    </style>
  </defs>
  <g id="Layer_2-2" data-name="Layer_2">
    <g>
      <rect class="cls-1" width="44.97" height="44.97" rx="5.19" ry="5.19"/>
      <g id="Layer_1-2">
        <g id="Layer_1-2-2" data-name="Layer_1-2">
          <g>
            <path d="M37.97,12.95l-.06-.12c-.1-.23-.24-.52-.53-.65-.46-.21-.95-.35-1.42-.41-.26-.03-.51-.03-.77-.03.56-.88.71-1.82.43-2.65-.29-.85-1.02-1.51-2.05-1.85-.86-.29-1.79-.35-2.92-.17-1.8.27-3.12,1-4.03,2.23-.32.43-.6.88-.89,1.32l-.42-.71c-1.62-2.74-5.2-3.48-7.6-2.6-.88.32-1.52.93-1.81,1.69-.29.76-.2,1.63.24,2.47.05.1.1.19.17.29h-.6c-.44.01-.88.03-1.33.1-.86.12-1.42.7-1.43,1.5v3.5c0,.1.03.2.05.27l.08.33h7.36v-5.71h-.68c-.2-.01-.41-.02-.63.03-.55.1-.92-.1-1.38-.8-.05-.07-.09-.15-.14-.22-.17-.3-.35-.76-.19-1.17s.59-.64.92-.75c.97-.35,1.98-.21,2.75-.05,1.78.36,2.72,1.6,3.42,2.99h-4.06v5.67h17.56v-4.04c.01-.11.03-.28-.05-.44h.01ZM17.95,12.61l-.28-.41c.4.34.91.55,1.63.41.08-.01.17-.02.28-.01v3.97h-5.76v-3.22c0-.35.25-.58.68-.64.4-.06.8-.06,1.23-.07h.44c.21-.01.41-.01.64-.01h1.13,0ZM28.61,9.6c1-.79,2.26-1.09,3.84-.94.35.03.76.18,1.21.44.38.21.53.55.44,1.02-.09.56-.42,1-.93,1.51-.11.11-.19.15-.35.15-.27-.01-.54-.01-.81-.01h-5.02c.38-.77.87-1.56,1.62-2.14h0ZM25.71,12.26l.28-.44c-.03.06-.06.12-.08.19l-.17.39-.1-.23.06.1h0ZM29.66,16.57h-8.33v-3.94h4.53v-.02h3.8v3.95h0ZM31.39,16.57v-3.95h.1c.44,0,.87,0,1.31.01.36,0,.65-.09.91-.31l-.22.3h1.38c.35-.01.68-.02,1,.02.38.05.78.17,1.14.32.03.03.1.17.14.25l.03,3.37h-5.77s0-.02,0-.02Z"/>
            <path d="M28.98,35.45h5.1c1.46,0,2.26-.8,2.26-2.25v-15.67h-7.35v17.91h-.01ZM29.85,18.41h5.61v14.79c0,.95-.43,1.38-1.39,1.38h-4.23v-16.16h0Z"/>
            <path d="M22,17.63l-.03.3v-.39h-7.28v1.22c.03.29.26.48.34.54,0,0,.01,0,.02.01-.13-.03-.26-.03-.39,0-.25.06-.44-.01-.77-.18-.17-.09-.35-.16-.53-.23l-.26-.11c-.75-.33-1.48-.21-2.07.37-1.2,1.17-2.37,2.34-3.53,3.54-.59.6-.71,1.36-.35,2.14l.45.98c.09.19.1.29.07.43-.09.35,0,.78.21,1.05.23.29.49.55.75.78l.59.58,7.7-7.73c.08.08.16.16.23.23l-.23-.16-7.65,7.67,7.6,7.63,7.7-7.71.97.98c-.1-.1-.21-.2-.3-.29-.1-.1-.21-.19-.31-.28l-.3-.28-7.72,7.74,1.79,1.6h.78l.34-.28c.17-.14.35-.28.5-.44.68-.67,1.35-1.35,2.02-2.02l-.08.09h6.68v-17.88h-6.55l-.4.1h0s0,.01,0,.01ZM22.25,26.19l-.7-.7.42.4v-.32c.03.22.12.44.28.62ZM21.11,18.41v5.44l-.9-.91c-1.21-1.21-2.41-2.43-3.63-3.63-.21-.21-.46-.37-.7-.51-.1-.07-.21-.13-.32-.21v-.18s5.54,0,5.54,0ZM11.04,22.41c0-.09.1-.19.19-.19h0c.15,0,.18.1.18.19,0,.04,0,.1-.04.13-.03.03-.07.04-.15.04-.04,0-.1,0-.14-.04s-.04-.1-.04-.15h0ZM9.22,27.41c-.22-.22-.46-.44-.65-.68-.03-.05-.08-.21-.06-.29.1-.43,0-.75-.12-1.02l-.45-.97c-.21-.45-.15-.84.19-1.18.41-.43.84-.86,1.26-1.29-.03.15-.05.29-.05.44,0,1.01.86,1.87,1.87,1.87.52.03.98-.2,1.34-.56s.56-.84.55-1.33c0-1-.86-1.87-1.87-1.89-.15,0-.28.01-.42.05.28-.28.55-.55.83-.82.32-.32.69-.38,1.11-.19l.27.11c.16.07.32.14.48.22.33.17.78.39,1.35.25h0s.19.05.29.14c.21.17.41.36.6.56l-6.54,6.56h0ZM16.9,35.07l-6.38-6.4,6.47-6.5,6.39,6.41-6.49,6.5h0ZM19.74,36.74c-.14.13-.28.25-.44.37l-.1.09h-.15l-.86-.77,6.49-6.5s.01,0,.02.01c.26.22.53.46.75.71.05.06.16.18-.12.48-.33.35-.67.68-1.01,1.02l-1.31,1.31c-1.09,1.1-2.18,2.2-3.28,3.29h0ZM22.81,18.41h5.28v16.14h-3.81l2.14-2.15c1-1,1-2.2,0-3.21l-1.29-1.31c-.74-.74-1.48-1.49-2.22-2.24-.06-.06-.09-.16-.09-.19-.01-2.13-.01-4.26,0-6.39v-.67h-.01Z"/>
            <path d="M15.85,24.12v3.16c-.35-.56-.97-.93-1.7-.93h0c-1.13,0-1.97.86-1.97,2,0,.55.21,1.04.58,1.41.37.37.86.57,1.4.57h0c.53,0,1.04-.21,1.41-.59.1-.1.19-.22.27-.34v3.01c0,.3.08.54.25.7.1.1.28.22.58.22h.02c.31,0,.5-.14.59-.25.16-.17.23-.41.21-.72v-2.96c.35.56.96.89,1.7.93,1.11,0,1.98-.87,1.98-1.98s-.86-1.99-1.96-2h0c-.54,0-1.06.22-1.44.61-.1.1-.19.21-.26.32v-3.1c0-.48-.32-.81-.8-.82-.5,0-.82.29-.84.77h-.02ZM14.15,28s.15.03.21.1.1.15.1.22c0,.08-.04.16-.11.22-.06.06-.12.1-.21.1-.08,0-.15-.04-.22-.12-.06-.07-.1-.15-.09-.22,0-.16.17-.32.32-.31h0ZM19.39,28.1c.06.06.1.15.1.23s-.04.17-.11.23c-.06.06-.15.1-.21.09-.08,0-.15-.04-.21-.11s-.1-.16-.09-.23c0-.16.19-.36.32-.31.08,0,.15.03.21.1h0ZM17.06,32.39l-.34.12s-.01-.03-.01-.1l.35-.03Z"/>
          </g>
        </g>
      </g>
    </g>
  </g>
</svg>