<?xml version="1.0" encoding="UTF-8"?>
<svg id="Layer_2" xmlns="http://www.w3.org/2000/svg" viewBox="0 0 44.97 44.97">
  <defs>
    <style>
      .cls-1 {
        fill: #fff200;
      }
    </style>
  </defs>
  <g id="Layer_2-2" data-name="Layer_2">
    <g>
      <rect class="cls-1" width="44.97" height="44.97" rx="5.19" ry="5.19"/>
      <g id="Layer_1-2">
        <g id="Layer_1-2-2" data-name="Layer_1-2">
          <g>
            <path d="M37.81,27.25c-.21.33-.52.42-.89.41-1.02-.01-2.04,0-3.06,0-.6,0-.83-.23-.83-.83v-3.12c0-.62.21-.83.82-.83h.93c-.13-5.37-4.36-10.52-9.91-11.49v.78c0,.5-.23.75-.72.75h-3.32c-.49,0-.73-.25-.74-.74v-.78c-4.44.7-9.55,4.9-9.94,11.48h1.03c.48,0,.73.21.74.7.01,1.12.01,2.24,0,3.36,0,.48-.25.72-.72.72h-3.32c-.51,0-.74-.23-.74-.74v-3.33c0-.48.23-.7.72-.71h.99s.03-.01.05-.02c.46-5.33,3.06-9.23,7.84-11.71h-4.82v.91c0,.64-.22.87-.86.87h-3.08c-.61,0-.83-.2-.83-.82,0-1.05.01-2.09,0-3.14-.02-.37.09-.65.41-.82h3.95c.33.21.42.52.4.89-.01.29,0,.57,0,.87h8.16c0-.31.01-.61,0-.91-.03-.38.09-.66.42-.86h3.95c.33.19.44.48.42.86-.02.29,0,.59,0,.9h8.16c0-.31.01-.58,0-.86-.02-.38.08-.69.4-.89h4.37v4.37c-.21.33-.52.42-.89.41-1.01-.01-2.02,0-3.02,0-.64,0-.86-.22-.86-.87v-.91h-4.82c4.79,2.48,7.38,6.38,7.84,11.73.31,0,.63.02.95,0,.37-.03.64.09.82.42v3.96h0s0,0,0,0ZM23.65,9.37h-2.33v2.31h2.33v-2.31ZM10.68,9.37h-2.32v2.31h2.32s0-2.31,0-2.31ZM36.6,11.68v-2.32h-2.31v2.32h2.31ZM8.37,24.09v2.31h2.3v-2.31h-2.3ZM36.6,24.1h-2.32v2.32h2.32v-2.32Z"/>
            <path d="M18.23,38.81c-.33-.17-.43-.45-.42-.81.01-1.47,0-2.95.01-4.43,0-.21-.04-.35-.24-.49-.65-.45-.9-1.25-.66-2,.23-.73.91-1.23,1.69-1.23h.56c-.05-.24-.1-.45-.16-.67-.43-1.36-1.14-2.56-2.16-3.57-.5-.5-.52-.62-.18-1.24.23-.42.46-.84.7-1.25.22-.39.55-.5.87-.33.33.17.4.51.2.91-.16.3-.31.61-.49.89-.12.2-.1.32.05.48,1.08,1.15,1.81,2.49,2.24,4,.07.25.12.5.19.76h4.12c.15-.5.27-1,.44-1.47.44-1.23,1.11-2.34,2.01-3.29.16-.16.16-.29.05-.48-1.26-2.27-2.52-4.55-3.76-6.83-.04-.08-.1-.16-.19-.32v4.12c0,.16.03.27.21.33,1,.44,1.46,1.48,1.13,2.52-.31.95-1.36,1.56-2.33,1.35-1.06-.24-1.76-1.2-1.62-2.25.1-.75.52-1.3,1.22-1.62.12-.05.21-.1.21-.27v-4.01s-.01-.05-.03-.14c-.25.46-.48.87-.71,1.29-.18.33-.36.66-.55.99-.23.4-.56.54-.89.35s-.4-.53-.18-.93c.78-1.43,1.56-2.84,2.35-4.27.13-.24.29-.43.59-.44.31,0,.48.19.61.44,1.41,2.56,2.83,5.13,4.24,7.7.35.63.7,1.28,1.05,1.91.25.45.23.65-.14,1-1.17,1.13-1.96,2.48-2.37,4.04-.01.05-.03.12-.04.17v.12h.53c.78.01,1.46.51,1.69,1.23.24.76,0,1.56-.66,2-.2.14-.24.27-.24.49,0,1.47,0,2.96.01,4.43,0,.37-.09.64-.42.81h-.36c-.33-.17-.43-.45-.42-.81.02-1.41,0-2.84,0-4.25v-.31h-6.95v.33c0,1.41-.01,2.82,0,4.23,0,.37-.09.64-.42.81h-.36v-.02s-.03,0-.03,0ZM22.49,32.22h3.71c.5,0,.78-.28.72-.7-.05-.33-.31-.5-.76-.5h-7.45c-.44.02-.7.29-.65.68.03.33.3.51.72.51h3.71,0ZM22.5,24.56c.45,0,.83-.41.83-.85s-.4-.81-.83-.81-.84.4-.83.84c0,.45.4.83.85.83h0Z"/>
            <path d="M18.92,22.04c-.33,0-.58-.27-.59-.59,0-.33.27-.61.6-.61.31,0,.59.28.6.59,0,.32-.28.61-.61.6h0Z"/>
          </g>
        </g>
      </g>
    </g>
  </g>
</svg>