<?xml version="1.0" encoding="UTF-8"?>
<svg id="Layer_2" xmlns="http://www.w3.org/2000/svg" viewBox="0 0 44.97 44.97">
  <defs>
    <style>
      .cls-1 {
        fill: #fff200;
      }
    </style>
  </defs>
  <g id="Layer_2-2" data-name="Layer_2">
    <g>
      <rect class="cls-1" width="44.97" height="44.97" rx="5.19" ry="5.19"/>
      <g id="Layer_1-2">
        <g id="Layer_1-2-2" data-name="Layer_1-2">
          <g>
            <path d="M37.57,31.62c-.16.3-.4.38-.66.34-.29-.05-.45.05-.52.43-.04.25-.13.51-.25.73-.15.29-.09.46.1.66.4.46.39.65,0,1.13-.33.4-.65.81-.98,1.21-.29.35-.49.35-.78,0-.11-.15-.21-.31-.3-.43-.44.21-.81.38-1.17.58-.06.03-.13.14-.13.22-.02.19,0,.38,0,.58.03.35-.07.5-.35.51-.58.01-1.16.01-1.74,0-.3,0-.48-.23-.44-.62.05-.52-.11-.76-.51-.87-.17-.05-.34-.14-.48-.26-.21-.17-.35-.1-.49.12-.07.11-.16.21-.25.3-.17.17-.36.17-.54,0-.03-.02-.05-.05-.07-.07-.35-.66-.87-.7-1.46-.7-6.14.01-12.27.01-18.4.01-.65,0-.75-.12-.75-.93V12.03c0-.6.15-.78.63-.79.75,0,1.49,0,2.24,0,.02,0,.03-.01.07-.04.02-.41.01-.83.05-1.24.15-1.44,1.15-2.55,2.34-2.56,1.23-.01,2.25,1.07,2.4,2.54.04.42.03.85.06,1.29h9.24c0-.37-.02-.76,0-1.13.07-1.23.81-2.3,1.77-2.6,1.5-.48,2.95.87,3.01,2.79.01.31,0,.62,0,.98h2.37c.43,0,.58.19.58.72v10.89c.81.15.8.15.85,1.12,0,.1.08.23.15.28.17.11.37.17.54.27.18.09.35.21.56.36.1-.15.21-.3.33-.44.25-.31.46-.32.71-.02.39.47.76.93,1.15,1.41.21.28.21.58-.02.86-.12.14-.24.28-.36.42.17.51.34,1.01.51,1.52.33.09.78-.17,1,.39v2.6h0ZM31.22,17.33H8.28v17.09h18.28c.15-.26.25-.49.4-.64.21-.22.27-.41.09-.72-.15-.27-.21-.6-.33-.89-.04-.1-.15-.21-.23-.23-.5-.05-.99-.07-1.49-.11-.32-.02-.47-.21-.47-.59v-3.8c0-.42.15-.59.49-.6h1.59c.07,0,.14-.01.23-.03-.33-.52-.32-.64.03-1.07.33-.41.65-.81,1.03-1.29h-2.78c-.48,0-.62-.17-.62-.74v-3.56c0-.55.14-.72.57-.72h2.95c.43,0,.56.17.56.7v3.41c0,.26-.03.52-.05.72.15.21.31.42.45.59.42-.22.82-.44,1.19-.64.05-.37.02-.84.19-1.06.17-.23.56-.22.88-.33v-5.49h-.01.01ZM24.36,12.35h-9.19c-.09.76-.32,1.42-.77,1.94-.46.52-.99.8-1.62.81-.51,0-.97-.16-1.38-.51-.63-.54-.96-1.31-1.05-2.23h-2.06v3.82h22.95v-3.83h-2.01c-.32,1.76-1.13,2.7-2.35,2.74-1.28.05-2.05-.79-2.51-2.74h0ZM35.6,26.34c-.2-.24-.4-.48-.63-.76-.07.09-.12.2-.19.28-.33.41-.4.38-.81.13-.42-.27-.87-.48-1.32-.67-.28-.12-.44-.29-.44-.66v-.5h-1.05v.58c0,.29-.13.45-.35.56-.51.24-1.02.48-1.51.77-.28.16-.48.14-.68-.14-.09-.13-.19-.26-.29-.38-.21.26-.42.5-.66.79.1.09.21.17.29.27.3.36.29.44.11.92-.21.58-.4,1.17-.58,1.76-.09.3-.22.48-.49.47h-.44v1.09h.33c.46,0,.53.09.66.62.09.4.21.8.37,1.17.37.89.38.89-.14,1.65.2.23.4.48.62.72.09-.11.19-.22.29-.34.26-.3.39-.28.7-.09.45.26.91.49,1.38.69.33.14.43.25.44.69v.54h.89v-.45c0-.48.11-.58.48-.72.47-.19.93-.43,1.38-.7.25-.15.45-.19.66.07.11.13.22.26.33.39.22-.27.42-.51.63-.76-.11-.15-.21-.28-.32-.41-.19-.23-.18-.46-.07-.74.23-.58.43-1.19.62-1.78.1-.32.24-.52.54-.5.13,0,.27,0,.4,0v-1.07c-.09,0-.17-.01-.25-.01-.54,0-.58-.07-.73-.69-.09-.39-.19-.79-.34-1.15-.35-.9-.36-.89.16-1.62h-.01s.02,0,.02,0ZM14.27,11.23h.03v-.94c-.03-1.05-.69-1.87-1.52-1.87-.81,0-1.51.79-1.54,1.8-.03.64-.03,1.28,0,1.92.04,1.03.63,1.77,1.41,1.85.76.07,1.48-.57,1.61-1.53.05-.4.01-.81.02-1.23h0ZM28.34,11.21h-.03v-.94c-.03-1.03-.71-1.85-1.54-1.85s-1.51.84-1.53,1.87c-.01.62-.01,1.23,0,1.85.02.99.61,1.76,1.41,1.86.75.09,1.45-.53,1.6-1.49.07-.42.05-.86.07-1.29h0ZM25.38,23.34h2.31v-2.81h-2.31v2.81ZM25.38,27.94v2.8s.05.04.08.06c.05-.08.14-.15.15-.24.02-.25,0-.5,0-.76,0-1.05,0-1.05.86-1.1.08,0,.19-.07.22-.15.07-.17.11-.38.16-.6h-1.47Z"/>
            <path d="M19.77,24.43h-1.44c-.44,0-.59-.17-.59-.71v-3.62c0-.52.14-.7.57-.7h2.95c.44,0,.57.19.57.72v3.51c0,.57-.17.79-.64.79h-1.42ZM18.61,20.52v2.81h2.31v-2.81h-2.31Z"/>
            <path d="M19.78,26.83h1.53c.33,0,.5.19.5.59v3.76c0,.41-.21.64-.54.64h-3.01c-.38,0-.54-.19-.54-.66v-3.66c0-.5.15-.67.55-.67h1.5,0ZM18.61,30.75h2.31v-2.81h-2.31v2.81Z"/>
            <path d="M15,21.91v1.88c0,.44-.15.64-.52.64h-3.03c-.36,0-.52-.21-.52-.65v-3.73c0-.43.15-.64.5-.64,1.03,0,2.07,0,3.09,0,.34,0,.48.19.49.6v1.88h-.01ZM14.13,20.53h-2.29v2.81h2.29v-2.81Z"/>
            <path d="M10.92,29.3v-1.85c0-.43.15-.62.51-.62h3.07c.35,0,.51.19.51.62v3.77c0,.41-.15.6-.49.6-1.03,0-2.07,0-3.09,0-.34,0-.5-.21-.5-.64v-1.88h0ZM11.81,30.74h2.31v-2.8h-2.31s0,2.8,0,2.8Z"/>
            <path d="M35.05,30.35c-.03,2.36-1.55,4.14-3.49,4.09-1.82-.04-3.33-1.98-3.29-4.21.04-2.31,1.6-4.16,3.45-4.11,1.89.05,3.38,1.94,3.34,4.23h0ZM34.22,30.27c0-1.7-1.13-3.08-2.54-3.09-1.4,0-2.53,1.36-2.54,3.09-.01,1.73,1.13,3.15,2.53,3.15,1.39,0,2.55-1.43,2.55-3.14h0Z"/>
          </g>
        </g>
      </g>
    </g>
  </g>
</svg>